<svg width="440" height="112" viewBox="0 0 440 112" fill="none" xmlns="http://www.w3.org/2000/svg">
<g filter="url(#filter0_d_15_3)">
<path d="M4.365 14.784L17.549 1.6H69.389L78.349 10.56V0.319992H84.109V32.32H78.349V18.496L66.573 6.71999H33.805V98.88H49.805L59.405 89.28V56.64H49.165V51.52H97.165V56.64H88.205V104H71.949L62.349 94.272L52.621 104H17.549L4.365 90.816V14.784Z" fill="#A51FA8"/>
<path d="M157.32 104H107.4V98.88H117.64V6.71999H107.4V1.6H185.48L197.384 13.504V42.176L186.76 52.8L197.384 63.424V98.88H207.624V104H178.568L167.944 93.376V55.36H147.08V98.88H157.32V104ZM147.08 6.71999V50.24H167.944V6.71999H147.08Z" fill="#420D98"/>
<path d="M260.105 104H210.185V98.88H220.425V6.71999H210.185V1.6H291.209V31.04H285.449V6.71999H249.865V51.52H280.329V56.64H249.865V98.88H260.105V104Z" fill="#A51FA8"/>
<path d="M426.102 6.71999V98.88H435.062V104H383.862V98.88H396.662V7.488L371.446 104H341.366L313.59 6.976V98.88H326.39V104H297.59V98.88H307.83V6.71999H297.59V1.6H342.134L368.374 93.248L392.31 1.6H435.062V6.71999H426.102Z" fill="#420D98"/>
<path d="M4.365 14.784L3.65789 14.0769L3.365 14.3698V14.784H4.365ZM17.549 1.6V0.599998H17.1348L16.8419 0.892892L17.549 1.6ZM69.389 1.6L70.0961 0.892891L69.8032 0.599998H69.389V1.6ZM78.349 10.56L77.6419 11.2671L79.349 12.9742V10.56H78.349ZM78.349 0.319992V-0.680008H77.349V0.319992H78.349ZM84.109 0.319992H85.109V-0.680008H84.109V0.319992ZM84.109 32.32V33.32H85.109V32.32H84.109ZM78.349 32.32H77.349V33.32H78.349V32.32ZM78.349 18.496H79.349V18.0818L79.0561 17.7889L78.349 18.496ZM66.573 6.71999L67.2801 6.01289L66.9872 5.71999H66.573V6.71999ZM33.805 6.71999V5.71999H32.805V6.71999H33.805ZM33.805 98.88H32.805V99.88H33.805V98.88ZM49.805 98.88V99.88H50.2192L50.5121 99.5871L49.805 98.88ZM59.405 89.28L60.1121 89.9871L60.405 89.6942V89.28H59.405ZM59.405 56.64H60.405V55.64H59.405V56.64ZM49.165 56.64H48.165V57.64H49.165V56.64ZM49.165 51.52V50.52H48.165V51.52H49.165ZM97.165 51.52H98.165V50.52H97.165V51.52ZM97.165 56.64V57.64H98.165V56.64H97.165ZM88.205 56.64V55.64H87.205V56.64H88.205ZM88.205 104V105H89.205V104H88.205ZM71.949 104L71.2372 104.702L71.5309 105H71.949V104ZM62.349 94.272L63.0608 93.5696L62.3537 92.8531L61.6419 93.5649L62.349 94.272ZM52.621 104V105H53.0352L53.3281 104.707L52.621 104ZM17.549 104L16.8419 104.707L17.1348 105H17.549V104ZM4.365 90.816H3.365V91.2302L3.65789 91.5231L4.365 90.816ZM5.07211 15.4911L18.2561 2.30711L16.8419 0.892892L3.65789 14.0769L5.07211 15.4911ZM17.549 2.6H69.389V0.599998H17.549V2.6ZM68.6819 2.30711L77.6419 11.2671L79.0561 9.85289L70.0961 0.892891L68.6819 2.30711ZM79.349 10.56V0.319992H77.349V10.56H79.349ZM78.349 1.31999H84.109V-0.680008H78.349V1.31999ZM83.109 0.319992V32.32H85.109V0.319992H83.109ZM84.109 31.32H78.349V33.32H84.109V31.32ZM79.349 32.32V18.496H77.349V32.32H79.349ZM79.0561 17.7889L67.2801 6.01289L65.8659 7.4271L77.6419 19.2031L79.0561 17.7889ZM66.573 5.71999H33.805V7.71999H66.573V5.71999ZM32.805 6.71999V98.88H34.805V6.71999H32.805ZM33.805 99.88H49.805V97.88H33.805V99.88ZM50.5121 99.5871L60.1121 89.9871L58.6979 88.5729L49.0979 98.1729L50.5121 99.5871ZM60.405 89.28V56.64H58.405V89.28H60.405ZM59.405 55.64H49.165V57.64H59.405V55.64ZM50.165 56.64V51.52H48.165V56.64H50.165ZM49.165 52.52H97.165V50.52H49.165V52.52ZM96.165 51.52V56.64H98.165V51.52H96.165ZM97.165 55.64H88.205V57.64H97.165V55.64ZM87.205 56.64V104H89.205V56.64H87.205ZM88.205 103H71.949V105H88.205V103ZM72.6608 103.298L63.0608 93.5696L61.6372 94.9744L71.2372 104.702L72.6608 103.298ZM61.6419 93.5649L51.9139 103.293L53.3281 104.707L63.0561 94.9791L61.6419 93.5649ZM52.621 103H17.549V105H52.621V103ZM18.2561 103.293L5.07211 90.1089L3.65789 91.5231L16.8419 104.707L18.2561 103.293ZM5.365 90.816V14.784H3.365V90.816H5.365ZM157.32 104V105H158.32V104H157.32ZM107.4 104H106.4V105H107.4V104ZM107.4 98.88V97.88H106.4V98.88H107.4ZM117.64 98.88V99.88H118.64V98.88H117.64ZM117.64 6.71999H118.64V5.71999H117.64V6.71999ZM107.4 6.71999H106.4V7.71999H107.4V6.71999ZM107.4 1.6V0.599998H106.4V1.6H107.4ZM185.48 1.6L186.187 0.892892L185.894 0.599998H185.48V1.6ZM197.384 13.504H198.384V13.0898L198.091 12.7969L197.384 13.504ZM197.384 42.176L198.091 42.8831L198.384 42.5902V42.176H197.384ZM186.76 52.8L186.053 52.0929L185.346 52.8L186.053 53.5071L186.76 52.8ZM197.384 63.424H198.384V63.0098L198.091 62.7169L197.384 63.424ZM197.384 98.88H196.384V99.88H197.384V98.88ZM207.624 98.88H208.624V97.88H207.624V98.88ZM207.624 104V105H208.624V104H207.624ZM178.568 104L177.861 104.707L178.154 105H178.568V104ZM167.944 93.376H166.944V93.7902L167.237 94.0831L167.944 93.376ZM167.944 55.36H168.944V54.36H167.944V55.36ZM147.08 55.36V54.36H146.08V55.36H147.08ZM147.08 98.88H146.08V99.88H147.08V98.88ZM157.32 98.88H158.32V97.88H157.32V98.88ZM147.08 6.71999V5.71999H146.08V6.71999H147.08ZM147.08 50.24H146.08V51.24H147.08V50.24ZM167.944 50.24V51.24H168.944V50.24H167.944ZM167.944 6.71999H168.944V5.71999H167.944V6.71999ZM157.32 103H107.4V105H157.32V103ZM108.4 104V98.88H106.4V104H108.4ZM107.4 99.88H117.64V97.88H107.4V99.88ZM118.64 98.88V6.71999H116.64V98.88H118.64ZM117.64 5.71999H107.4V7.71999H117.64V5.71999ZM108.4 6.71999V1.6H106.4V6.71999H108.4ZM107.4 2.6H185.48V0.599998H107.4V2.6ZM184.773 2.30711L196.677 14.2111L198.091 12.7969L186.187 0.892892L184.773 2.30711ZM196.384 13.504V42.176H198.384V13.504H196.384ZM196.677 41.4689L186.053 52.0929L187.467 53.5071L198.091 42.8831L196.677 41.4689ZM186.053 53.5071L196.677 64.1311L198.091 62.7169L187.467 52.0929L186.053 53.5071ZM196.384 63.424V98.88H198.384V63.424H196.384ZM197.384 99.88H207.624V97.88H197.384V99.88ZM206.624 98.88V104H208.624V98.88H206.624ZM207.624 103H178.568V105H207.624V103ZM179.275 103.293L168.651 92.6689L167.237 94.0831L177.861 104.707L179.275 103.293ZM168.944 93.376V55.36H166.944V93.376H168.944ZM167.944 54.36H147.08V56.36H167.944V54.36ZM146.08 55.36V98.88H148.08V55.36H146.08ZM147.08 99.88H157.32V97.88H147.08V99.88ZM156.32 98.88V104H158.32V98.88H156.32ZM146.08 6.71999V50.24H148.08V6.71999H146.08ZM147.08 51.24H167.944V49.24H147.08V51.24ZM168.944 50.24V6.71999H166.944V50.24H168.944ZM167.944 5.71999H147.08V7.71999H167.944V5.71999ZM260.105 104V105H261.105V104H260.105ZM210.185 104H209.185V105H210.185V104ZM210.185 98.88V97.88H209.185V98.88H210.185ZM220.425 98.88V99.88H221.425V98.88H220.425ZM220.425 6.71999H221.425V5.71999H220.425V6.71999ZM210.185 6.71999H209.185V7.71999H210.185V6.71999ZM210.185 1.6V0.599998H209.185V1.6H210.185ZM291.209 1.6H292.209V0.599998H291.209V1.6ZM291.209 31.04V32.04H292.209V31.04H291.209ZM285.449 31.04H284.449V32.04H285.449V31.04ZM285.449 6.71999H286.449V5.71999H285.449V6.71999ZM249.865 6.71999V5.71999H248.865V6.71999H249.865ZM249.865 51.52H248.865V52.52H249.865V51.52ZM280.329 51.52H281.329V50.52H280.329V51.52ZM280.329 56.64V57.64H281.329V56.64H280.329ZM249.865 56.64V55.64H248.865V56.64H249.865ZM249.865 98.88H248.865V99.88H249.865V98.88ZM260.105 98.88H261.105V97.88H260.105V98.88ZM260.105 103H210.185V105H260.105V103ZM211.185 104V98.88H209.185V104H211.185ZM210.185 99.88H220.425V97.88H210.185V99.88ZM221.425 98.88V6.71999H219.425V98.88H221.425ZM220.425 5.71999H210.185V7.71999H220.425V5.71999ZM211.185 6.71999V1.6H209.185V6.71999H211.185ZM210.185 2.6H291.209V0.599998H210.185V2.6ZM290.209 1.6V31.04H292.209V1.6H290.209ZM291.209 30.04H285.449V32.04H291.209V30.04ZM286.449 31.04V6.71999H284.449V31.04H286.449ZM285.449 5.71999H249.865V7.71999H285.449V5.71999ZM248.865 6.71999V51.52H250.865V6.71999H248.865ZM249.865 52.52H280.329V50.52H249.865V52.52ZM279.329 51.52V56.64H281.329V51.52H279.329ZM280.329 55.64H249.865V57.64H280.329V55.64ZM248.865 56.64V98.88H250.865V56.64H248.865ZM249.865 99.88H260.105V97.88H249.865V99.88ZM259.105 98.88V104H261.105V98.88H259.105ZM426.102 6.71999V5.71999H425.102V6.71999H426.102ZM426.102 98.88H425.102V99.88H426.102V98.88ZM435.062 98.88H436.062V97.88H435.062V98.88ZM435.062 104V105H436.062V104H435.062ZM383.862 104H382.862V105H383.862V104ZM383.862 98.88V97.88H382.862V98.88H383.862ZM396.662 98.88V99.88H397.662V98.88H396.662ZM396.662 7.488H397.662L395.694 7.23521L396.662 7.488ZM371.446 104V105H372.218L372.414 104.253L371.446 104ZM341.366 104L340.405 104.275L340.612 105H341.366V104ZM313.59 6.976L314.551 6.70077L312.59 6.976H313.59ZM313.59 98.88H312.59V99.88H313.59V98.88ZM326.39 98.88H327.39V97.88H326.39V98.88ZM326.39 104V105H327.39V104H326.39ZM297.59 104H296.59V105H297.59V104ZM297.59 98.88V97.88H296.59V98.88H297.59ZM307.83 98.88V99.88H308.83V98.88H307.83ZM307.83 6.71999H308.83V5.71999H307.83V6.71999ZM297.59 6.71999H296.59V7.71999H297.59V6.71999ZM297.59 1.6V0.599998H296.59V1.6H297.59ZM342.134 1.6L343.095 1.32475L342.888 0.599998H342.134V1.6ZM368.374 93.248L367.413 93.5233L368.418 97.0357L369.342 93.5007L368.374 93.248ZM392.31 1.6V0.599998H391.538L391.342 1.3473L392.31 1.6ZM435.062 1.6H436.062V0.599998H435.062V1.6ZM435.062 6.71999V7.71999H436.062V6.71999H435.062ZM425.102 6.71999V98.88H427.102V6.71999H425.102ZM426.102 99.88H435.062V97.88H426.102V99.88ZM434.062 98.88V104H436.062V98.88H434.062ZM435.062 103H383.862V105H435.062V103ZM384.862 104V98.88H382.862V104H384.862ZM383.862 99.88H396.662V97.88H383.862V99.88ZM397.662 98.88V7.488H395.662V98.88H397.662ZM395.694 7.23521L370.478 103.747L372.414 104.253L397.63 7.74079L395.694 7.23521ZM371.446 103H341.366V105H371.446V103ZM342.327 103.725L314.551 6.70077L312.629 7.25122L340.405 104.275L342.327 103.725ZM312.59 6.976V98.88H314.59V6.976H312.59ZM313.59 99.88H326.39V97.88H313.59V99.88ZM325.39 98.88V104H327.39V98.88H325.39ZM326.39 103H297.59V105H326.39V103ZM298.59 104V98.88H296.59V104H298.59ZM297.59 99.88H307.83V97.88H297.59V99.88ZM308.83 98.88V6.71999H306.83V98.88H308.83ZM307.83 5.71999H297.59V7.71999H307.83V5.71999ZM298.59 6.71999V1.6H296.59V6.71999H298.59ZM297.59 2.6H342.134V0.599998H297.59V2.6ZM341.173 1.87525L367.413 93.5233L369.335 92.9727L343.095 1.32475L341.173 1.87525ZM369.342 93.5007L393.278 1.8527L391.342 1.3473L367.406 92.9953L369.342 93.5007ZM392.31 2.6H435.062V0.599998H392.31V2.6ZM434.062 1.6V6.71999H436.062V1.6H434.062ZM435.062 5.71999H426.102V7.71999H435.062V5.71999Z" fill="black"/>
</g>
<defs>
<filter id="filter0_d_15_3" x="0.36499" y="0.320068" width="438.697" height="111.68" filterUnits="userSpaceOnUse" color-interpolation-filters="sRGB">
<feFlood flood-opacity="0" result="BackgroundImageFix"/>
<feColorMatrix in="SourceAlpha" type="matrix" values="0 0 0 0 0 0 0 0 0 0 0 0 0 0 0 0 0 0 127 0" result="hardAlpha"/>
<feOffset dy="4"/>
<feGaussianBlur stdDeviation="2"/>
<feComposite in2="hardAlpha" operator="out"/>
<feColorMatrix type="matrix" values="0 0 0 0 0 0 0 0 0 0 0 0 0 0 0 0 0 0 0.25 0"/>
<feBlend mode="normal" in2="BackgroundImageFix" result="effect1_dropShadow_15_3"/>
<feBlend mode="normal" in="SourceGraphic" in2="effect1_dropShadow_15_3" result="shape"/>
</filter>
</defs>
</svg>
